<svg width="113" height="76" viewBox="0 0 113 76" fill="none" xmlns="http://www.w3.org/2000/svg">
<g clip-path="url(#clip0_2_17)">
<path d="M18.7444 40.8845H19.7644C31.4028 40.8845 43.0479 40.8845 54.6863 40.8845C55.9968 40.8845 56.1251 40.7625 56.1656 39.4609C56.2737 36.3357 54.5445 34.0309 51.39 33.1089C49.5122 32.553 47.5804 32.3835 45.6282 32.3768C45.3648 32.3768 45.1081 32.3768 44.8447 32.3632C44.4327 32.3361 43.9733 32.3022 43.899 31.7802C43.8247 31.2243 44.2503 30.9599 44.6961 30.9261C48.5193 30.6549 52.2817 30.7905 55.3551 33.5157C56.9897 34.9664 57.8138 36.8713 57.78 39.1084C57.7665 40.1456 57.8205 40.1727 58.8067 39.9219C61.0966 39.3456 62.4813 37.556 62.6097 34.9935C62.684 33.5563 62.5489 32.1463 62.1976 30.7498C62.0017 29.9905 61.8531 29.2177 61.6572 28.4517C60.9412 25.713 61.9274 23.5979 64.0687 21.937C64.6226 21.5099 64.7577 21.1371 64.4875 20.466C63.535 18.0933 64.17 15.8969 65.3588 13.7954C65.5682 13.4293 65.9127 13.1649 66.3855 13.3751C66.8922 13.6056 66.7773 14.0259 66.649 14.4258C66.3653 15.3139 65.9397 16.1409 65.7506 17.0697C65.2845 19.3135 66.2369 21.1371 68.3714 21.9574C68.9388 22.1743 69.5333 22.3302 70.1209 22.4861C70.7964 22.6692 71.2084 23.0691 71.1882 23.7809C71.1544 24.9198 71.6407 25.7265 72.5932 26.3027C73.1876 26.662 73.755 27.0756 74.3561 27.4213C75.0654 27.828 75.4774 27.6721 75.7544 26.8925C75.9367 26.3705 76.0246 25.8214 76.0246 25.2588C76.0246 20.4253 76.0246 15.585 76.0381 10.7516C76.0381 10.2906 75.903 9.9042 75.653 9.53135C75.268 8.94835 74.91 8.3518 74.5655 7.74168C74.0387 6.82651 73.782 5.8571 74.0995 4.81313C74.2616 4.26403 74.1332 3.97931 73.5118 3.99964C70.9923 4.06743 68.4525 3.84372 65.9465 4.22335C64.2105 4.48773 62.7312 5.41647 61.3668 6.45366C59.0769 8.19588 56.8951 10.0737 54.6188 11.8295C51.3495 14.358 47.7155 15.8698 43.487 15.5579C42.7102 15.5037 41.9199 15.5579 41.1363 15.5308C40.7243 15.5173 40.1974 15.6325 40.1569 14.9682C40.1164 14.3309 40.5892 14.3038 41.035 14.2699C42.0347 14.1818 43.0277 14.1004 44.2503 13.992C42.7237 13.4361 42.44 12.6972 43.1425 11.4973C43.818 10.3448 44.7636 9.45 45.9322 8.79921C46.3307 8.57551 46.682 8.46026 46.0403 8.01962C45.223 7.45696 45.2027 6.99599 45.7971 6.1825C46.7901 4.82669 48.1748 4.18946 49.8094 4.00642C50.0323 3.97931 50.2552 3.96575 50.593 3.93185C50.208 3.60646 49.877 3.38275 49.6135 3.09803C49.0056 2.44046 49.1204 1.83712 49.9648 1.57274C52.1195 0.894835 54.2743 0.664347 56.4156 1.66765C56.9019 1.89814 57.4693 2.35911 57.2734 1.17278C57.1451 0.379627 57.9421 -0.14914 58.8338 0.0338947C60.3333 0.338952 61.7248 0.942288 62.9406 1.87102C63.8728 2.58282 64.8049 2.78619 66.0073 2.63705C69.3779 2.20997 72.7688 2.07439 76.1597 2.42012C76.5379 2.4608 76.95 2.46758 77.1121 2.89466C77.2674 3.3014 77.0243 3.62002 76.7743 3.91151C75.3153 5.6334 75.2343 6.03336 76.5784 7.8637C77.3823 8.96191 77.6795 10.0872 77.6727 11.4295C77.6525 14.1343 77.7943 16.846 77.8213 19.5508C77.8483 21.8489 77.72 24.147 77.4836 26.4383C77.4431 26.8383 77.3552 27.245 77.2269 27.6314C76.7 29.1974 75.6801 29.6584 74.167 29.0211C73.147 28.5873 72.1811 28.0585 71.2895 27.3942C70.4722 26.784 69.844 26.0519 69.7291 24.9808C69.6616 24.33 69.3374 23.9436 68.6822 23.7674C68.1013 23.6115 67.5541 23.3132 66.9867 23.0827C66.1559 22.7505 65.4399 22.8793 64.7374 23.4894C63.2649 24.7707 62.792 26.3027 63.2716 28.1941C63.8255 30.3634 64.3591 32.5327 64.2646 34.8172C64.1632 37.2035 63.3797 39.1897 61.36 40.5727C61.2992 40.6133 61.2587 40.6947 61.1236 40.8642H94.161C94.161 40.9252 94.1745 40.993 94.1745 41.054C93.6747 41.115 93.1816 41.2167 92.6817 41.2302C90.3041 41.298 87.9264 41.3387 85.5487 41.3929C77.1661 41.576 68.7767 41.6709 60.3873 41.637C52.5518 41.6031 44.7231 41.637 36.8876 41.576C31.3487 41.5285 25.8098 41.359 20.271 41.2302C19.7644 41.2167 19.2577 41.115 18.7511 41.054C18.7511 40.9997 18.7579 40.9387 18.7646 40.8845H18.7444ZM53.2949 2.63705C53.0449 2.86076 52.0993 2.17608 52.3965 3.28784C52.768 4.67755 52.1938 5.51815 50.7483 5.5995C49.8702 5.65373 49.0191 5.82321 48.2086 6.14182C47.4588 6.43332 47.4385 6.58924 48.0194 7.11123C48.8232 7.82981 48.8502 8.48738 48.1005 9.27375C47.756 9.63982 47.3304 9.88386 46.8846 10.1008C46.2024 10.4397 45.5945 10.8804 45.1014 11.4702C44.7636 11.8837 44.588 12.2498 45.277 12.5345C45.5539 12.6497 45.8241 12.8938 45.9862 13.1514C46.3915 13.7818 46.8981 13.8157 47.5668 13.6395C49.6811 13.0836 51.5521 12.0667 53.3084 10.7923C56.294 8.62974 58.8743 5.93845 62.0423 4.00642C62.5016 3.72848 62.3597 3.45732 62.0152 3.20649C61.3803 2.73874 60.671 2.39979 59.955 2.07439C59.5633 1.89136 59.3336 2.01338 59.1174 2.39979C58.4555 3.61324 57.5706 3.91829 56.294 3.39631C55.3483 3.0099 54.4026 2.64383 53.2949 2.63027V2.63705Z" fill="#B98F6A"/>
<path d="M18.8727 47.65C21.426 47.65 23.9793 47.65 26.5326 47.65C26.8433 47.65 27.2351 47.5076 27.2756 47.9889C27.3162 48.4364 27.4513 49.06 26.8636 49.1821C25.5734 49.4464 25.3911 50.3006 25.3235 51.4259C25.1141 55.1476 24.979 58.8693 25.0263 62.591C25.0398 63.757 25.2087 63.9062 26.411 63.9604C26.8096 63.9807 27.3229 63.9129 27.2351 64.5434C27.1676 65.0518 27.2419 65.7704 26.3975 65.7026C24.4589 65.5535 22.5135 65.5806 20.5749 65.567C20.2507 65.567 19.967 65.4586 20.0008 65.0789C20.0413 64.6654 19.9873 64.1909 20.5209 63.9875C22.142 63.3571 22.1893 63.2757 22.1961 61.5335C22.1961 58.1846 22.2028 54.8358 22.1961 51.4869C22.1961 50.1243 21.9124 49.8328 20.5682 49.8261C19.3186 49.8193 18.0689 49.8125 16.8261 49.8532C15.7858 49.8871 15.5021 50.2057 15.4346 51.2361C15.1711 54.951 15.0563 58.6727 15.0901 62.4012C15.1036 63.8113 15.2184 63.9265 16.6369 63.9672C17.076 63.9807 17.5758 63.9333 17.5286 64.6044C17.488 65.1671 17.4475 65.7907 16.6437 65.7162C14.6105 65.5196 12.5908 65.6213 10.5712 65.8653C10.2672 65.8992 10.0511 65.7704 10.0375 65.4382C10.024 65.0044 9.94298 64.4281 10.4563 64.3061C12.3004 63.8655 12.2869 62.4758 12.2801 61.0251C12.2666 57.7033 12.2801 54.3884 12.2801 51.0666C12.2801 49.582 12.1585 49.4532 10.6522 49.3651C10.3483 49.3447 10.0916 49.3041 10.1591 48.9448C10.2402 48.5041 10.0038 47.8805 10.7063 47.7313C10.9022 47.6907 11.1116 47.711 11.3142 47.711C13.8405 47.711 16.36 47.711 18.8863 47.711C18.8863 47.6907 18.8863 47.6771 18.8863 47.6568L18.8727 47.65Z" fill="#B98F6A"/>
<path d="M113 73.8646H0.0202642L0 73.6409C0.952418 73.5663 1.89808 73.4443 2.8505 73.4172C7.31538 73.2748 11.7803 73.1731 16.2451 73.0172C22.1015 72.8138 27.9646 72.78 33.821 72.6579C46.4726 72.3935 59.131 72.4952 71.7826 72.5766C76.6865 72.6105 81.5905 72.624 86.4944 72.7257C90.7837 72.8138 95.0797 72.9291 99.3689 73.0715C103.719 73.2138 108.062 73.4036 112.406 73.5799C112.574 73.5799 112.757 73.546 113 73.8714V73.8646Z" fill="#B98F6A"/>
<path d="M0.114807 43.2978C37.6847 42.986 75.2342 42.986 112.797 43.2978C111.939 43.3724 111.082 43.4741 110.224 43.508C106.542 43.6503 102.861 43.7656 99.1798 43.8876C93.1478 44.091 87.1158 44.1249 81.0838 44.2876C75.3964 44.4367 69.7089 44.3418 64.0281 44.4164C61.9409 44.4435 59.847 44.552 57.7665 44.5181C49.6405 44.3893 41.5146 44.4706 33.3954 44.3689C27.7957 44.3011 22.2028 44.1927 16.6031 44.0232C11.1858 43.8537 5.76852 43.5826 0.351223 43.3588C0.270166 43.3588 0.189109 43.3182 0.114807 43.2978Z" fill="#B98F6A"/>
<path d="M80.611 51.6971C82.5496 51.6971 84.495 51.7378 86.4336 51.5547C86.7376 51.5276 87.2172 51.392 87.2307 51.9411C87.2442 52.3818 87.332 52.958 86.7173 53.1003C85.8189 53.3037 85.6906 53.9138 85.6095 54.7138C85.3596 57.1203 85.5758 59.5404 85.3326 61.947C85.2988 62.2589 85.3731 62.5842 85.4001 62.9029C85.4542 63.5943 85.7784 63.9943 86.5079 63.9401C87.2712 63.879 87.5414 64.279 87.5346 64.9908C87.5211 66.0077 87.5009 67.0313 87.5482 68.0482C87.5887 68.9498 86.947 68.8684 86.3931 68.9769C85.7379 69.1125 85.569 68.7261 85.5285 68.2041C85.3461 65.8043 84.9746 65.6484 82.2862 65.5874C80.5502 65.5535 78.8075 65.445 77.0783 65.6755C75.7071 65.8585 75.3829 66.2314 75.1937 67.6143C75.1329 68.0753 75.241 68.6447 74.6196 68.8617C73.5388 69.2345 73.2214 69.004 73.2146 67.8312C73.2146 66.8415 73.2349 65.8518 73.2146 64.862C73.2011 64.2926 73.3902 63.9401 73.9509 63.7435C75.7409 63.1266 76.7271 61.8318 77.0243 59.9743C77.308 58.1643 77.6187 56.3611 77.8821 54.5511C78.0105 53.6833 77.6795 53.3918 76.6528 53.3105C76.2205 53.2766 75.6733 53.4325 75.518 52.7817C75.3559 52.1106 75.6463 51.7174 76.3488 51.7106C77.7673 51.6971 79.1925 51.7106 80.611 51.7106V51.6971ZM76.9972 63.7909C78.6049 63.7909 79.9896 63.8113 81.3676 63.7909C82.3065 63.7774 82.6239 63.4587 82.6442 62.5165C82.6712 61.2352 82.6577 59.954 82.6645 58.6727C82.6645 57.3034 82.651 55.934 82.6645 54.5646C82.6712 53.6766 82.1241 53.5139 81.4081 53.5071C80.7529 53.5071 80.1179 53.419 80.0571 54.3951C80.0031 55.3239 79.8545 56.2458 79.6991 57.161C79.3006 59.493 79.2466 61.9606 76.9972 63.7909Z" fill="#B98F6A"/>
<path d="M47.4453 51.5547C50.4647 51.8191 53.4165 51.5683 56.3683 51.392C56.8817 51.3649 57.2329 51.4598 57.1451 52.1038C56.9965 53.1681 56.8614 54.2392 56.7533 55.3103C56.6588 56.178 55.9968 56.056 55.4429 56.0899C54.7945 56.1306 54.8147 55.6425 54.808 55.1883C54.7742 53.6291 54.6594 53.5139 53.1125 53.4935C53.0517 53.4935 52.9977 53.4868 52.9369 53.4935C52.1534 53.5952 51.0253 53.0868 50.6538 53.8054C50.1742 54.7409 50.235 55.9475 50.3363 57.0593C50.3769 57.4932 50.7416 57.4864 51.0658 57.5067C51.9034 57.5542 52.7478 57.5949 53.5854 57.6559C54.2878 57.7033 54.9566 57.9135 55.5848 58.2321C58.1448 59.5201 58.3745 62.9639 56.0441 64.6315C54.7269 65.5738 53.2341 65.9263 51.6805 65.8382C49.9446 65.7433 48.2221 65.5264 46.4794 65.7365C46.2159 65.7704 45.7566 65.9806 45.7296 65.4518C45.7026 65.045 45.581 64.462 46.1146 64.3129C47.4385 63.9401 47.5061 62.9774 47.4926 61.8521C47.4521 59.2896 47.4858 56.7271 47.4926 54.1579C47.4926 53.6223 47.4318 53.1478 46.7293 53.141C46.2767 53.1342 45.912 53.019 45.9863 52.436C46.0538 51.9343 46.1957 51.514 46.8306 51.5615C47.0603 51.5751 47.2967 51.5615 47.4656 51.5615L47.4453 51.5547ZM50.1202 61.5606C50.1067 63.6282 50.4714 64.0214 52.3222 63.9468C53.7204 63.8926 54.531 63.1808 54.6053 61.947C54.6864 60.5302 53.9569 59.554 52.5316 59.4727C50.0324 59.3235 50.1675 59.2489 50.1269 61.5606H50.1202Z" fill="#B98F6A"/>
<path d="M43.487 58.1982C43.5005 63.5401 38.5966 67.1804 33.5508 65.4925C30.8759 64.5976 29.633 62.5097 29.3899 59.7913C29.0589 56.0831 31.1191 52.0903 35.638 51.5073C40.2582 50.9107 43.4397 53.4664 43.487 58.205V58.1982ZM40.3123 59.1473C40.292 57.9406 40.1096 56.7678 39.5895 55.6696C38.7992 53.9816 37.4685 53.2766 35.5434 53.5071C34.206 53.663 33.0644 54.8697 32.72 56.4695C32.3484 58.1982 32.5173 59.893 33.0915 61.5403C33.6183 63.0588 34.9355 64.0282 36.4283 64.0756C37.9819 64.1231 39.272 63.2215 39.8867 61.6352C40.1907 60.842 40.319 60.0082 40.3055 59.154L40.3123 59.1473Z" fill="#B98F6A"/>
<path d="M95.6066 61.0251C95.3769 61.0251 95.1405 61.0251 94.9108 61.0251C93.2829 61.059 93.1411 61.1606 92.6547 62.7131C92.29 63.8587 92.4589 64.1028 93.668 64.1502C94.2218 64.1705 94.7487 64.1909 94.6812 64.9773C94.6406 65.4586 94.438 65.7568 93.9246 65.7229C92.3643 65.6145 90.8039 65.506 89.2368 65.6958C88.9802 65.7297 88.6694 65.6687 88.6222 65.3433C88.5614 64.9027 88.5681 64.3875 89.0139 64.1841C89.8515 63.8045 90.142 63.0656 90.4324 62.2927C91.628 59.1337 92.8506 55.9882 94.0124 52.8156C94.2894 52.0699 94.6677 51.67 95.485 51.609C98.0518 51.4327 97.5249 50.9378 98.2206 53.3647C99.092 56.3882 99.9296 59.4184 100.929 62.3944C101.213 63.2283 101.585 63.9536 102.55 64.1502C102.935 64.2248 103.044 64.5163 102.976 64.8823C102.902 65.262 102.841 65.7229 102.341 65.6755C100.483 65.4925 98.6327 65.7772 96.7819 65.7297C96.4712 65.7229 96.2685 65.5603 96.3091 65.2416C96.3496 64.8823 96.3091 64.4892 96.7819 64.3061C98.322 63.7231 98.3152 63.7096 97.8626 62.1301C97.4844 60.7946 97.6465 61.0454 95.5998 61.0251H95.6066ZM95.7349 54.5511C95.6538 54.5511 95.5795 54.5511 95.4985 54.5511C95.1743 55.4323 94.8095 56.3068 94.5393 57.2085C94.3367 57.8864 93.6139 58.7676 94.053 59.1879C94.6069 59.7303 95.6403 59.371 96.4644 59.2557C96.5522 59.2422 96.64 59.2354 96.7211 59.2083C96.917 59.154 97.0251 59.0252 96.971 58.8219C96.5657 57.3915 96.1469 55.9679 95.7349 54.5375V54.5511Z" fill="#B98F6A"/>
<path d="M68.3242 65.7297C65.8925 65.5806 63.4608 65.5535 61.0291 65.7365C60.7724 65.7568 60.3468 65.9195 60.3198 65.4925C60.2928 65.0654 60.1645 64.4688 60.7724 64.3061C61.8802 64.0146 62.0828 63.2147 62.0828 62.2385C62.0828 59.615 62.0828 56.9983 62.0896 54.3748C62.0896 53.663 62.0153 53.08 61.0899 53.1071C60.6981 53.1207 60.5089 52.8766 60.5427 52.4902C60.5765 52.0767 60.6103 51.6428 61.1574 51.5818C61.4749 51.5479 61.7991 51.5344 62.1098 51.5683C65.0414 51.8666 67.9594 51.5818 70.8775 51.4191C71.4043 51.392 71.6475 51.5412 71.5665 52.1106C71.4178 53.0868 71.33 54.0765 71.1544 55.0459C70.9991 55.934 70.2358 55.5408 69.7292 55.6222C69.1888 55.7035 69.2563 55.2493 69.2428 54.9104C69.1753 53.7376 68.9929 53.541 67.8513 53.5071C67.1556 53.4868 66.4599 53.4935 65.7641 53.5003C65.3521 53.5003 65.1157 53.6833 65.0887 54.124C65.0414 54.9375 65.0009 55.751 64.9198 56.5577C64.8387 57.3373 65.2238 57.5949 65.9195 57.6288C66.7909 57.6762 67.6555 57.5949 68.5201 57.5067C69.7832 57.3779 69.9791 57.6694 69.6414 58.8625C69.5063 59.3371 69.2158 59.4252 68.8038 59.4252C67.7568 59.4252 66.7166 59.4523 65.6696 59.4252C65.0144 59.4117 64.7104 59.6354 64.7442 60.3336C64.7847 61.1471 64.7644 61.9606 64.7442 62.7808C64.7239 63.5943 65.1224 63.9536 65.9127 63.9333C66.4936 63.9197 67.0746 63.9333 67.6487 63.8994C68.8105 63.8248 69.6211 63.3435 69.8575 62.0826C69.9858 61.4183 70.9315 61.0793 71.5259 61.3979C71.8299 61.5606 71.7759 61.825 71.7353 62.0826C71.6002 63.0588 71.4584 64.0417 71.3165 65.0179C71.249 65.4992 70.9788 65.7297 70.4925 65.7297C69.7697 65.7297 69.0402 65.7297 68.3174 65.7297H68.3242Z" fill="#B98F6A"/>
<path d="M41.5079 20.0999C39.9813 20.1067 37.9549 20.0999 35.9285 19.9508C35.5434 19.9236 35.1382 19.9372 35.1111 19.3949C35.0841 18.8593 35.3813 18.5746 35.8879 18.5407C36.4688 18.5 37.0497 18.4933 37.6306 18.4933C40.7648 18.4797 43.899 18.5068 47.0265 18.3102C49.9851 18.1272 52.4708 16.7782 54.7944 15.0766C57.2329 13.2937 59.3674 11.1177 61.8464 9.38899C63.7512 8.06708 65.7641 7.00276 68.1553 6.88074C68.4187 6.86718 68.6754 6.81973 68.9254 6.91464C69.2361 7.02988 69.5265 7.1858 69.567 7.55187C69.6143 7.95183 69.3104 8.10097 69.0132 8.23655C68.8578 8.30434 68.6889 8.37213 68.5201 8.39247C64.6496 8.9009 61.8126 11.2668 59.0026 13.6937C56.1994 16.1138 53.3895 18.4933 49.7014 19.5033C48.4315 19.8491 47.1481 20.0457 45.8444 20.0796C44.5678 20.1135 43.2911 20.0863 41.5079 20.0863V20.0999Z" fill="#B98F6A"/>
<path d="M94.1678 76H18.7241C18.7241 75.9661 18.7241 75.9254 18.7241 75.8915C19.5482 75.8237 20.3723 75.7085 21.2031 75.6882C24.7156 75.6068 28.2213 75.5661 31.7337 75.4848C46.4185 75.1594 61.1033 75.3153 75.7881 75.3492C80.9217 75.3628 86.0553 75.5594 91.1889 75.6949C92.1886 75.7221 93.1816 75.8305 94.1813 75.8983C94.1813 75.9322 94.1813 75.9661 94.1813 76H94.1678Z" fill="#B98F6A"/>
<path d="M41.1026 22.7234C44.5745 22.7098 48.0059 22.4726 51.2549 21.1032C52.0858 20.7575 52.8761 20.3168 53.6866 19.9372C54.1865 19.6999 54.7674 19.3949 55.1254 20.0931C55.4631 20.7439 54.8687 21.049 54.4499 21.3201C52.3289 22.7166 49.9445 23.4623 47.479 23.903C44.7636 24.391 42.0144 24.5334 39.2585 24.2894C38.8262 24.2487 38.3939 24.1741 37.9751 24.0792C37.6239 23.9979 37.2861 23.8284 37.2929 23.4081C37.2996 22.9335 37.6779 22.7505 38.0697 22.737C39.0829 22.7031 40.0961 22.7234 41.1161 22.7234H41.1026Z" fill="#B98F6A"/>
<path d="M40.015 28.3365C38.8802 28.4246 37.7657 28.1399 36.6309 28.1399C36.408 28.1399 36.1783 28.0517 35.969 27.9568C35.719 27.8484 35.5231 27.6653 35.5299 27.3603C35.5366 27.0417 35.7866 26.94 36.0433 26.8518C36.4958 26.7027 36.9551 26.723 37.4212 26.7095C40.4609 26.6146 43.5005 26.5739 46.5199 26.2011C48.168 25.9977 49.7621 25.5842 51.3022 24.9673C51.6535 24.8317 52.0115 24.7164 52.3762 24.6419C52.7004 24.5741 53.0314 24.6215 53.1733 24.9944C53.3016 25.3333 53.1733 25.6316 52.9166 25.8553C52.4438 26.2553 51.8831 26.5129 51.309 26.6959C48.7287 27.5026 46.1011 28.0653 43.3924 28.1602C42.2644 28.2009 41.1363 28.2754 40.0083 28.3297L40.015 28.3365Z" fill="#B98F6A"/>
<path d="M73.2957 13.8022C72.762 13.7344 72.3905 13.4632 72.4311 12.9141C72.4783 12.3108 72.9106 11.9854 73.4983 12.0125C74.0387 12.0396 74.3156 12.4328 74.2954 12.9616C74.2751 13.5852 73.8158 13.7547 73.2957 13.8089V13.8022Z" fill="#B98F6A"/>
</g>
<defs>
<clipPath id="clip0_2_17">
<rect width="113" height="76" fill="white"/>
</clipPath>
</defs>
</svg>
